<?xml version="1.0" encoding="utf-8"?>
<!-- Generator: Adobe Illustrator 16.0.4, SVG Export Plug-In . SVG Version: 6.00 Build 0)  -->
<!DOCTYPE svg PUBLIC "-//W3C//DTD SVG 1.1//EN" "http://www.w3.org/Graphics/SVG/1.1/DTD/svg11.dtd">
<svg version="1.1" id="Layer_1" xmlns="http://www.w3.org/2000/svg" xmlns:xlink="http://www.w3.org/1999/xlink" x="0px" y="0px"
	 width="284.565px" height="134.006px" viewBox="0 0 284.565 134.006" enable-background="new 0 0 284.565 134.006"
	 xml:space="preserve">
<g>
	<g>
		<path d="M23.458,128.963c0,1.608,0,2.865,0.083,3.568c0.05,0.486,0.151,0.854,0.653,0.922c0.235,0.033,0.604,0.067,0.838,0.067
			c0.218,0,0.285,0.05,0.285,0.134c0,0.117-0.117,0.167-0.369,0.167c-1.055,0-2.111-0.05-2.546-0.05s-1.491,0.05-2.128,0.05
			c-0.234,0-0.352-0.033-0.352-0.167c0-0.084,0.067-0.134,0.251-0.134c0.251,0,0.453-0.034,0.604-0.067
			c0.335-0.067,0.418-0.436,0.486-0.922c0.083-0.703,0.083-1.96,0.083-3.568v-2.948c0-2.547,0-3.016-0.033-3.552
			c-0.034-0.57-0.168-0.838-0.721-0.955c-0.134-0.034-0.419-0.051-0.653-0.051c-0.167,0-0.285-0.033-0.285-0.134
			c0-0.134,0.134-0.168,0.385-0.168c0.436,0,0.921,0.018,1.357,0.018c0.436,0.017,0.821,0.033,1.056,0.033
			c0.637,0,4.038,0,4.423-0.017c0.318-0.017,0.52-0.017,0.687-0.067c0.101-0.033,0.185-0.101,0.268-0.101
			c0.067,0,0.117,0.067,0.117,0.151c0,0.117-0.083,0.317-0.134,0.754c-0.017,0.167-0.05,1.155-0.084,1.356
			c-0.017,0.134-0.05,0.234-0.167,0.234s-0.151-0.083-0.167-0.268c0-0.134,0-0.402-0.101-0.637
			c-0.117-0.234-0.469-0.486-1.105-0.503l-2.581-0.05c-0.1,0-0.15,0.05-0.15,0.234v4.188c0,0.101,0.017,0.15,0.117,0.15l2.145-0.017
			c0.285,0,0.52,0,0.754-0.017c0.318-0.017,0.553-0.084,0.72-0.302c0.084-0.101,0.118-0.167,0.218-0.167
			c0.067,0,0.101,0.05,0.101,0.15s-0.083,0.52-0.134,1.039c-0.034,0.335-0.067,1.105-0.067,1.223c0,0.151,0,0.318-0.168,0.318
			c-0.101,0-0.134-0.117-0.134-0.234s-0.034-0.318-0.101-0.52c-0.084-0.234-0.335-0.536-0.854-0.603
			c-0.419-0.051-2.195-0.051-2.479-0.051c-0.084,0-0.117,0.033-0.117,0.151V128.963z"/>
		<path d="M31.068,130.22c-0.084,0-0.101,0.017-0.134,0.101l-0.787,1.927c-0.151,0.352-0.218,0.703-0.218,0.871
			c0,0.251,0.134,0.402,0.586,0.402h0.218c0.184,0,0.218,0.066,0.218,0.15c0,0.117-0.084,0.15-0.235,0.15
			c-0.486,0-1.173-0.05-1.642-0.05c-0.151,0-0.938,0.05-1.709,0.05c-0.185,0-0.268-0.033-0.268-0.15c0-0.084,0.05-0.15,0.167-0.15
			c0.134,0,0.302-0.018,0.436-0.018c0.67-0.1,0.921-0.535,1.223-1.256l3.854-8.896c0.167-0.402,0.285-0.57,0.436-0.57
			c0.218,0,0.285,0.135,0.436,0.453c0.352,0.787,2.815,6.551,3.753,8.712c0.57,1.29,0.988,1.475,1.256,1.524
			c0.218,0.033,0.386,0.051,0.553,0.051c0.134,0,0.201,0.05,0.201,0.15c0,0.117-0.083,0.15-0.636,0.15c-0.52,0-1.592,0-2.832-0.033
			c-0.268-0.017-0.436-0.017-0.436-0.117c0-0.084,0.033-0.134,0.184-0.15c0.101-0.018,0.201-0.151,0.134-0.318l-1.14-2.882
			c-0.033-0.084-0.083-0.101-0.15-0.101H31.068z M34.218,129.433c0.067,0,0.083-0.034,0.067-0.084l-1.391-3.569
			c-0.017-0.05-0.034-0.134-0.067-0.134c-0.05,0-0.067,0.084-0.084,0.134l-1.424,3.553c-0.034,0.066,0,0.101,0.05,0.101H34.218z"/>
		<path d="M41.258,132.465c-1.458-1.224-1.843-2.832-1.843-4.205c0-0.972,0.318-2.647,1.726-3.904
			c1.072-0.938,2.479-1.508,4.674-1.508c0.922,0,1.475,0.067,2.145,0.151c0.553,0.083,1.039,0.184,1.475,0.234
			c0.167,0.017,0.218,0.084,0.218,0.167c0,0.117-0.034,0.285-0.067,0.788c-0.034,0.469-0.034,1.256-0.05,1.541
			c-0.017,0.201-0.067,0.352-0.201,0.352c-0.117,0-0.151-0.117-0.151-0.302c-0.017-0.452-0.201-0.954-0.569-1.323
			c-0.503-0.485-1.491-0.838-2.849-0.838c-1.29,0-2.111,0.234-2.781,0.805c-1.089,0.938-1.357,2.312-1.357,3.702
			c0,3.385,2.614,4.993,4.591,4.993c1.307,0,2.027-0.101,2.614-0.754c0.251-0.285,0.452-0.688,0.502-0.955
			c0.034-0.218,0.067-0.285,0.184-0.285c0.101,0,0.168,0.135,0.168,0.252c0,0.167-0.168,1.407-0.318,1.893
			c-0.067,0.252-0.134,0.318-0.386,0.419c-0.586,0.234-1.708,0.318-2.664,0.318C44.308,134.006,42.599,133.587,41.258,132.465z"/>
		<path d="M52.84,127.17c0-2.161,0-2.562-0.017-3.016c-0.034-0.485-0.185-0.653-0.503-0.754c-0.167-0.05-0.352-0.066-0.536-0.066
			c-0.15,0-0.234-0.034-0.234-0.168c0-0.084,0.117-0.117,0.352-0.117c0.553,0,1.559,0.033,1.977,0.033
			c0.369,0,1.324-0.033,1.894-0.033c0.184,0,0.301,0.033,0.301,0.117c0,0.134-0.083,0.168-0.234,0.168s-0.268,0.017-0.436,0.05
			c-0.402,0.067-0.52,0.269-0.553,0.771c-0.034,0.453-0.034,0.854-0.034,3.016v2.514c0,1.374,0,2.513,0.067,3.116
			c0.05,0.386,0.151,0.604,0.586,0.67c0.201,0.033,0.536,0.051,0.754,0.051c0.167,0,0.235,0.083,0.235,0.15
			c0,0.101-0.118,0.15-0.285,0.15c-0.972,0-1.977-0.05-2.379-0.05c-0.335,0-1.34,0.05-1.927,0.05c-0.185,0-0.285-0.05-0.285-0.15
			c0-0.067,0.05-0.15,0.234-0.15c0.218,0,0.385-0.018,0.52-0.051c0.301-0.066,0.385-0.268,0.436-0.687
			c0.067-0.587,0.067-1.726,0.067-3.1V127.17z"/>
		<path d="M61.639,129.684c0,1.826,0,2.73,0.318,2.999c0.251,0.218,0.821,0.302,1.96,0.302c0.788,0,1.357-0.017,1.726-0.402
			c0.184-0.185,0.335-0.587,0.368-0.854c0.017-0.134,0.05-0.218,0.168-0.218c0.1,0,0.134,0.15,0.134,0.318
			c0,0.167-0.101,1.223-0.218,1.642c-0.101,0.318-0.167,0.386-0.938,0.386c-1.055,0-1.91-0.017-2.647-0.051
			c-0.737-0.017-1.357-0.033-1.96-0.033c-0.168,0-0.486,0.017-0.838,0.017c-0.352,0.017-0.72,0.033-1.022,0.033
			c-0.185,0-0.285-0.05-0.285-0.15c0-0.067,0.05-0.15,0.234-0.15c0.218,0,0.385-0.018,0.52-0.051
			c0.301-0.066,0.385-0.335,0.436-0.754c0.067-0.603,0.067-1.726,0.067-3.032v-2.514c0-2.161,0-2.562-0.017-3.016
			c-0.034-0.485-0.167-0.637-0.637-0.771c-0.117-0.033-0.302-0.05-0.486-0.05c-0.167,0-0.251-0.051-0.251-0.151
			s0.101-0.134,0.318-0.134c0.687,0,1.625,0.033,2.027,0.033c0.352,0,1.558-0.033,2.128-0.033c0.218,0,0.318,0.033,0.318,0.134
			s-0.083,0.151-0.268,0.151c-0.167,0-0.402,0.017-0.569,0.05c-0.402,0.067-0.52,0.269-0.553,0.771
			c-0.034,0.453-0.034,0.854-0.034,3.016V129.684z"/>
		<path d="M68.914,127.17c0-2.161,0-2.562-0.017-3.016c-0.034-0.485-0.185-0.653-0.503-0.754c-0.167-0.05-0.352-0.066-0.536-0.066
			c-0.15,0-0.234-0.034-0.234-0.168c0-0.084,0.117-0.117,0.352-0.117c0.553,0,1.559,0.033,1.977,0.033
			c0.369,0,1.324-0.033,1.894-0.033c0.184,0,0.301,0.033,0.301,0.117c0,0.134-0.083,0.168-0.234,0.168s-0.268,0.017-0.436,0.05
			c-0.402,0.067-0.52,0.269-0.553,0.771c-0.034,0.453-0.034,0.854-0.034,3.016v2.514c0,1.374,0,2.513,0.067,3.116
			c0.05,0.386,0.151,0.604,0.586,0.67c0.201,0.033,0.536,0.051,0.754,0.051c0.167,0,0.235,0.083,0.235,0.15
			c0,0.101-0.118,0.15-0.285,0.15c-0.972,0-1.977-0.05-2.379-0.05c-0.335,0-1.34,0.05-1.927,0.05c-0.185,0-0.285-0.05-0.285-0.15
			c0-0.067,0.05-0.15,0.234-0.15c0.218,0,0.385-0.018,0.52-0.051c0.301-0.066,0.385-0.268,0.436-0.687
			c0.067-0.587,0.067-1.726,0.067-3.1V127.17z"/>
		<path d="M77.695,123.92l-2.195,0.051c-0.854,0.017-1.207,0.117-1.424,0.436c-0.151,0.201-0.218,0.385-0.251,0.485
			c-0.033,0.117-0.067,0.185-0.167,0.185s-0.134-0.084-0.134-0.234c0-0.234,0.285-1.608,0.318-1.726
			c0.033-0.185,0.083-0.269,0.167-0.269c0.117,0,0.268,0.117,0.637,0.168c0.436,0.05,0.988,0.066,1.474,0.066h5.981
			c0.469,0,0.787-0.033,1.005-0.066c0.234-0.034,0.352-0.067,0.402-0.067c0.101,0,0.117,0.084,0.117,0.302
			c0,0.302-0.033,1.357-0.033,1.726c-0.017,0.15-0.05,0.234-0.134,0.234c-0.117,0-0.151-0.066-0.167-0.285l-0.017-0.15
			c-0.034-0.368-0.419-0.804-1.743-0.821l-1.86-0.033v5.764c0,1.307,0.017,2.43,0.084,3.049c0.05,0.402,0.134,0.671,0.57,0.737
			c0.201,0.033,0.536,0.051,0.754,0.051c0.167,0,0.234,0.083,0.234,0.15c0,0.101-0.117,0.15-0.285,0.15
			c-0.972,0-1.96-0.05-2.379-0.05c-0.335,0-1.34,0.05-1.927,0.05c-0.184,0-0.285-0.05-0.285-0.15c0-0.067,0.05-0.15,0.235-0.15
			c0.218,0,0.402-0.018,0.519-0.051c0.302-0.066,0.385-0.335,0.436-0.754c0.067-0.603,0.067-1.726,0.067-3.032V123.92z"/>
		<path d="M86.344,127.17c0-2.161,0-2.562-0.017-3.016c-0.034-0.485-0.185-0.653-0.503-0.754c-0.167-0.05-0.352-0.066-0.536-0.066
			c-0.15,0-0.234-0.034-0.234-0.168c0-0.084,0.117-0.117,0.352-0.117c0.553,0,1.559,0.033,1.977,0.033
			c0.369,0,1.324-0.033,1.894-0.033c0.184,0,0.301,0.033,0.301,0.117c0,0.134-0.083,0.168-0.234,0.168s-0.268,0.017-0.436,0.05
			c-0.402,0.067-0.52,0.269-0.553,0.771c-0.034,0.453-0.034,0.854-0.034,3.016v2.514c0,1.374,0,2.513,0.067,3.116
			c0.05,0.386,0.151,0.604,0.586,0.67c0.201,0.033,0.536,0.051,0.754,0.051c0.167,0,0.235,0.083,0.235,0.15
			c0,0.101-0.118,0.15-0.285,0.15c-0.972,0-1.977-0.05-2.379-0.05c-0.335,0-1.34,0.05-1.927,0.05c-0.185,0-0.285-0.05-0.285-0.15
			c0-0.067,0.05-0.15,0.234-0.15c0.218,0,0.385-0.018,0.52-0.051c0.301-0.066,0.385-0.268,0.436-0.687
			c0.067-0.587,0.067-1.726,0.067-3.1V127.17z"/>
		<path d="M93.166,127.17c0-2.161,0-2.562-0.017-3.016c-0.034-0.485-0.167-0.637-0.637-0.771c-0.117-0.033-0.369-0.05-0.586-0.05
			c-0.151,0-0.251-0.051-0.251-0.151s0.117-0.134,0.335-0.134c0.771,0,1.709,0.033,2.128,0.033c0.469,0,3.736,0.017,4.021,0
			c0.268-0.017,0.503-0.066,0.62-0.083c0.083-0.018,0.167-0.067,0.234-0.067c0.084,0,0.101,0.067,0.101,0.134
			c0,0.101-0.084,0.269-0.117,0.922c-0.017,0.15-0.05,0.771-0.084,0.938c-0.017,0.067-0.05,0.235-0.167,0.235
			c-0.101,0-0.117-0.067-0.117-0.185c0-0.101-0.017-0.352-0.101-0.52c-0.117-0.251-0.234-0.452-0.972-0.52
			c-0.251-0.033-2.011-0.066-2.312-0.066c-0.067,0-0.101,0.05-0.101,0.134v3.519c0,0.084,0.017,0.15,0.101,0.15
			c0.335,0,2.245,0,2.58-0.033c0.352-0.033,0.553-0.084,0.704-0.218c0.117-0.101,0.167-0.185,0.234-0.185
			c0.067,0,0.118,0.067,0.118,0.15c0,0.084-0.034,0.318-0.118,1.039c-0.033,0.285-0.067,0.854-0.067,0.955
			c0,0.117-0.017,0.318-0.151,0.318c-0.101,0-0.134-0.05-0.134-0.117c-0.017-0.15-0.017-0.335-0.05-0.52
			c-0.084-0.285-0.268-0.503-0.821-0.553c-0.268-0.033-1.944-0.067-2.312-0.067c-0.067,0-0.083,0.067-0.083,0.151v1.139
			c0,0.486-0.017,1.692,0,2.111c0.033,0.972,0.486,1.189,1.994,1.189c0.385,0,1.005-0.017,1.391-0.185
			c0.369-0.167,0.536-0.469,0.637-1.055c0.034-0.151,0.067-0.218,0.167-0.218c0.117,0,0.134,0.184,0.134,0.335
			c0,0.318-0.117,1.29-0.201,1.574c-0.101,0.369-0.235,0.369-0.788,0.369c-1.106,0-1.994-0.017-2.714-0.051
			c-0.72-0.017-1.273-0.033-1.708-0.033c-0.168,0-0.486,0.017-0.838,0.017c-0.352,0.017-0.721,0.033-1.022,0.033
			c-0.185,0-0.285-0.05-0.285-0.15c0-0.067,0.05-0.15,0.234-0.15c0.218,0,0.385-0.018,0.52-0.051
			c0.301-0.066,0.385-0.335,0.436-0.754c0.067-0.603,0.067-1.726,0.067-3.032V127.17z"/>
		<path d="M102.016,133.638c-0.234-0.101-0.285-0.168-0.285-0.486c0-0.771,0.067-1.658,0.083-1.893c0-0.218,0.067-0.369,0.185-0.369
			c0.134,0,0.151,0.134,0.151,0.234c0,0.185,0.05,0.486,0.134,0.737c0.318,1.056,1.424,1.407,2.346,1.407
			c1.273,0,2.044-0.804,2.044-1.81c0-0.619-0.151-1.239-1.458-2.01l-0.854-0.503c-1.743-1.022-2.312-1.977-2.312-3.233
			c0-1.742,1.675-2.865,3.719-2.865c0.955,0,1.709,0.134,2.094,0.234c0.134,0.034,0.201,0.084,0.201,0.185
			c0,0.185-0.05,0.586-0.05,1.709c0,0.302-0.067,0.452-0.185,0.452c-0.1,0-0.15-0.084-0.15-0.251c0-0.134-0.067-0.569-0.386-0.938
			c-0.218-0.268-0.687-0.67-1.642-0.67c-1.056,0-2.011,0.553-2.011,1.524c0,0.637,0.235,1.14,1.558,1.877l0.604,0.335
			c1.943,1.072,2.546,2.161,2.546,3.451c0,1.056-0.402,1.91-1.474,2.664c-0.704,0.502-1.676,0.586-2.463,0.586
			C103.557,134.006,102.652,133.922,102.016,133.638z"/>
		<path d="M117.854,121.356c0.05-0.284,0.151-0.436,0.285-0.436c0.134,0,0.234,0.084,0.453,0.52l4.574,9.315l4.557-9.433
			c0.134-0.269,0.218-0.402,0.369-0.402s0.251,0.168,0.301,0.52l1.525,10.254c0.151,1.055,0.318,1.541,0.821,1.691
			c0.486,0.151,0.821,0.168,1.039,0.168c0.151,0,0.269,0.017,0.269,0.117c0,0.134-0.201,0.185-0.436,0.185
			c-0.418,0-2.731-0.034-3.401-0.084c-0.385-0.033-0.486-0.084-0.486-0.185c0-0.084,0.067-0.134,0.184-0.184
			c0.101-0.034,0.151-0.252,0.084-0.721l-1.005-7.288h-0.067l-3.652,7.473c-0.385,0.787-0.469,0.938-0.62,0.938
			s-0.318-0.335-0.586-0.837c-0.402-0.771-1.726-3.335-1.927-3.804c-0.151-0.352-1.156-2.329-1.742-3.585h-0.067l-0.872,6.534
			c-0.033,0.301-0.05,0.519-0.05,0.787c0,0.318,0.218,0.469,0.503,0.536c0.301,0.066,0.536,0.084,0.704,0.084
			c0.134,0,0.251,0.033,0.251,0.117c0,0.15-0.151,0.184-0.402,0.184c-0.704,0-1.458-0.05-1.759-0.05c-0.318,0-1.123,0.05-1.659,0.05
			c-0.167,0-0.301-0.033-0.301-0.184c0-0.084,0.101-0.117,0.268-0.117c0.134,0,0.251,0,0.502-0.051
			c0.469-0.101,0.603-0.754,0.687-1.323L117.854,121.356z"/>
		<path d="M135.184,130.22c-0.084,0-0.101,0.017-0.134,0.101l-0.787,1.927c-0.151,0.352-0.218,0.703-0.218,0.871
			c0,0.251,0.134,0.402,0.586,0.402h0.218c0.184,0,0.218,0.066,0.218,0.15c0,0.117-0.084,0.15-0.235,0.15
			c-0.486,0-1.173-0.05-1.642-0.05c-0.151,0-0.938,0.05-1.709,0.05c-0.185,0-0.268-0.033-0.268-0.15c0-0.084,0.05-0.15,0.167-0.15
			c0.134,0,0.302-0.018,0.436-0.018c0.67-0.1,0.921-0.535,1.223-1.256l3.854-8.896c0.167-0.402,0.285-0.57,0.436-0.57
			c0.218,0,0.285,0.135,0.436,0.453c0.352,0.787,2.814,6.551,3.753,8.712c0.57,1.29,0.988,1.475,1.256,1.524
			c0.218,0.033,0.386,0.051,0.553,0.051c0.134,0,0.201,0.05,0.201,0.15c0,0.117-0.084,0.15-0.637,0.15c-0.52,0-1.592,0-2.832-0.033
			c-0.268-0.017-0.436-0.017-0.436-0.117c0-0.084,0.033-0.134,0.184-0.15c0.101-0.018,0.201-0.151,0.134-0.318l-1.14-2.882
			c-0.033-0.084-0.083-0.101-0.15-0.101H135.184z M138.334,129.433c0.067,0,0.083-0.034,0.067-0.084l-1.391-3.569
			c-0.017-0.05-0.034-0.134-0.067-0.134c-0.05,0-0.067,0.084-0.084,0.134l-1.424,3.553c-0.034,0.066,0,0.101,0.05,0.101H138.334z"/>
		<path d="M146.062,131.878c0.033,1.106,0.218,1.441,0.503,1.542c0.251,0.083,0.536,0.101,0.771,0.101
			c0.168,0,0.251,0.066,0.251,0.15c0,0.117-0.134,0.15-0.335,0.15c-0.955,0-1.642-0.05-1.91-0.05c-0.134,0-0.838,0.05-1.592,0.05
			c-0.201,0-0.335-0.017-0.335-0.15c0-0.084,0.101-0.15,0.234-0.15c0.201,0,0.469-0.018,0.67-0.067
			c0.385-0.101,0.436-0.485,0.453-1.726l0.134-8.444c0-0.284,0.101-0.485,0.251-0.485c0.185,0,0.386,0.218,0.637,0.469
			c0.185,0.185,2.396,2.446,4.541,4.54c1.005,0.989,2.966,2.999,3.184,3.2h0.066l-0.15-6.333c-0.017-0.871-0.151-1.122-0.503-1.257
			c-0.218-0.083-0.569-0.083-0.771-0.083c-0.185,0-0.234-0.067-0.234-0.151c0-0.117,0.15-0.134,0.368-0.134
			c0.771,0,1.559,0.033,1.877,0.033c0.167,0,0.72-0.033,1.44-0.033c0.201,0,0.335,0.017,0.335,0.134
			c0,0.084-0.084,0.151-0.251,0.151c-0.15,0-0.269,0-0.452,0.05c-0.402,0.117-0.52,0.369-0.536,1.173l-0.168,8.98
			c0,0.318-0.117,0.452-0.234,0.452c-0.251,0-0.452-0.15-0.604-0.302c-0.921-0.854-2.764-2.613-4.306-4.104
			c-1.608-1.541-3.167-3.268-3.451-3.519h-0.051L146.062,131.878z"/>
		<path d="M159.872,130.22c-0.083,0-0.1,0.017-0.134,0.101l-0.787,1.927c-0.151,0.352-0.218,0.703-0.218,0.871
			c0,0.251,0.134,0.402,0.586,0.402h0.218c0.185,0,0.218,0.066,0.218,0.15c0,0.117-0.083,0.15-0.234,0.15
			c-0.485,0-1.173-0.05-1.642-0.05c-0.151,0-0.938,0.05-1.709,0.05c-0.185,0-0.269-0.033-0.269-0.15c0-0.084,0.051-0.15,0.168-0.15
			c0.134,0,0.302-0.018,0.436-0.018c0.67-0.1,0.922-0.535,1.223-1.256l3.854-8.896c0.168-0.402,0.285-0.57,0.436-0.57
			c0.218,0,0.285,0.135,0.436,0.453c0.353,0.787,2.815,6.551,3.754,8.712c0.569,1.29,0.988,1.475,1.256,1.524
			c0.218,0.033,0.386,0.051,0.553,0.051c0.135,0,0.201,0.05,0.201,0.15c0,0.117-0.084,0.15-0.637,0.15c-0.52,0-1.592,0-2.831-0.033
			c-0.269-0.017-0.436-0.017-0.436-0.117c0-0.084,0.033-0.134,0.185-0.15c0.1-0.018,0.2-0.151,0.134-0.318l-1.14-2.882
			c-0.033-0.084-0.084-0.101-0.15-0.101H159.872z M163.022,129.433c0.066,0,0.084-0.034,0.066-0.084l-1.391-3.569
			c-0.017-0.05-0.033-0.134-0.066-0.134c-0.051,0-0.067,0.084-0.084,0.134l-1.424,3.553c-0.034,0.066,0,0.101,0.05,0.101H163.022z"
			/>
		<path d="M178.825,132.867c0,0.385,0,0.401-0.184,0.502c-0.989,0.486-2.446,0.637-3.603,0.637c-3.619,0-6.819-1.642-6.819-5.579
			c0-2.278,1.224-3.87,2.581-4.657c1.407-0.821,2.73-0.922,3.971-0.922c1.021,0,2.312,0.168,2.613,0.234
			c0.302,0.051,0.821,0.135,1.173,0.151c0.167,0.017,0.201,0.066,0.201,0.167c0,0.168-0.101,0.553-0.101,2.346
			c0,0.218-0.084,0.318-0.201,0.318c-0.101,0-0.134-0.067-0.15-0.185c-0.034-0.318-0.118-0.771-0.503-1.173
			c-0.436-0.452-1.541-1.089-3.2-1.089c-0.804,0-1.826,0.017-2.849,0.838c-0.82,0.67-1.356,1.726-1.356,3.468
			c0,3.066,1.977,5.295,5.127,5.295c0.385,0,0.687,0,1.038-0.151c0.218-0.1,0.285-0.251,0.285-0.502v-1.307
			c0-0.704,0-1.24-0.017-1.676c-0.017-0.486-0.168-0.637-0.637-0.771c-0.117-0.034-0.369-0.051-0.569-0.051
			c-0.135,0-0.235-0.066-0.235-0.15c0-0.117,0.117-0.134,0.318-0.134c0.771,0,1.826,0.033,2.262,0.033
			c0.47,0,1.24-0.033,1.727-0.033c0.2,0,0.301,0.017,0.301,0.134c0,0.084-0.083,0.15-0.184,0.15c-0.117,0-0.235,0.017-0.402,0.051
			c-0.402,0.066-0.553,0.268-0.569,0.771c-0.018,0.436-0.018,1.005-0.018,1.709V132.867z"/>
		<path d="M182.952,127.17c0-2.161,0-2.562-0.018-3.016c-0.033-0.485-0.167-0.637-0.637-0.771c-0.117-0.033-0.368-0.05-0.586-0.05
			c-0.15,0-0.251-0.051-0.251-0.151s0.117-0.134,0.335-0.134c0.771,0,1.709,0.033,2.128,0.033c0.469,0,3.735,0.017,4.021,0
			c0.269-0.017,0.503-0.066,0.62-0.083c0.084-0.018,0.167-0.067,0.234-0.067c0.084,0,0.101,0.067,0.101,0.134
			c0,0.101-0.084,0.269-0.117,0.922c-0.017,0.15-0.051,0.771-0.084,0.938c-0.017,0.067-0.05,0.235-0.167,0.235
			c-0.101,0-0.118-0.067-0.118-0.185c0-0.101-0.017-0.352-0.1-0.52c-0.118-0.251-0.235-0.452-0.973-0.52
			c-0.251-0.033-2.01-0.066-2.312-0.066c-0.067,0-0.101,0.05-0.101,0.134v3.519c0,0.084,0.017,0.15,0.101,0.15
			c0.335,0,2.245,0,2.58-0.033c0.352-0.033,0.553-0.084,0.704-0.218c0.117-0.101,0.167-0.185,0.234-0.185
			c0.066,0,0.117,0.067,0.117,0.15c0,0.084-0.034,0.318-0.117,1.039c-0.034,0.285-0.067,0.854-0.067,0.955
			c0,0.117-0.017,0.318-0.15,0.318c-0.101,0-0.135-0.05-0.135-0.117c-0.017-0.15-0.017-0.335-0.05-0.52
			c-0.084-0.285-0.269-0.503-0.821-0.553c-0.268-0.033-1.943-0.067-2.312-0.067c-0.067,0-0.084,0.067-0.084,0.151v1.139
			c0,0.486-0.017,1.692,0,2.111c0.033,0.972,0.485,1.189,1.994,1.189c0.385,0,1.005-0.017,1.391-0.185
			c0.368-0.167,0.535-0.469,0.636-1.055c0.034-0.151,0.067-0.218,0.168-0.218c0.117,0,0.134,0.184,0.134,0.335
			c0,0.318-0.117,1.29-0.201,1.574c-0.101,0.369-0.234,0.369-0.787,0.369c-1.105,0-1.994-0.017-2.714-0.051
			c-0.721-0.017-1.273-0.033-1.709-0.033c-0.168,0-0.486,0.017-0.838,0.017c-0.352,0.017-0.721,0.033-1.022,0.033
			c-0.184,0-0.284-0.05-0.284-0.15c0-0.067,0.05-0.15,0.234-0.15c0.218,0,0.386-0.018,0.52-0.051
			c0.302-0.066,0.385-0.335,0.436-0.754c0.067-0.603,0.067-1.726,0.067-3.032V127.17z"/>
		<path d="M193.159,123.166c0.033-0.234,0.167-0.368,0.284-0.368c0.151,0,0.252,0.066,0.453,0.452l3.953,7.874l3.954-7.975
			c0.117-0.234,0.252-0.352,0.386-0.352c0.117,0,0.285,0.15,0.335,0.452l1.34,8.763c0.135,0.888,0.269,1.272,0.721,1.407
			c0.419,0.117,0.653,0.134,0.838,0.134c0.134,0,0.234,0.05,0.234,0.134c0,0.117-0.167,0.168-0.385,0.168
			c-0.369,0-2.463-0.051-3.05-0.084c-0.352-0.017-0.436-0.084-0.436-0.168c0-0.066,0.067-0.117,0.168-0.15
			c0.083-0.033,0.117-0.201,0.066-0.604l-0.82-6.148h-0.051l-3.166,6.3c-0.335,0.67-0.419,0.804-0.587,0.804
			c-0.185,0-0.352-0.284-0.586-0.72c-0.353-0.654-1.525-2.832-1.692-3.234c-0.117-0.268-0.988-1.993-1.475-2.981h-0.05l-0.704,5.495
			c-0.033,0.251-0.05,0.436-0.05,0.67c0,0.269,0.201,0.369,0.452,0.419s0.386,0.067,0.52,0.067s0.234,0.066,0.234,0.134
			c0,0.134-0.134,0.167-0.352,0.167c-0.62,0-1.29-0.05-1.559-0.05c-0.285,0-0.988,0.05-1.457,0.05c-0.151,0-0.269-0.033-0.269-0.167
			c0-0.067,0.084-0.134,0.234-0.134c0.117,0,0.218,0,0.452-0.034c0.402-0.05,0.536-0.619,0.604-1.089L193.159,123.166z"/>
		<path d="M208.075,127.17c0-2.161,0-2.562-0.017-3.016c-0.033-0.485-0.167-0.637-0.637-0.771c-0.117-0.033-0.368-0.05-0.586-0.05
			c-0.15,0-0.251-0.051-0.251-0.151s0.117-0.134,0.335-0.134c0.771,0,1.709,0.033,2.128,0.033c0.469,0,3.735,0.017,4.021,0
			c0.269-0.017,0.503-0.066,0.62-0.083c0.084-0.018,0.167-0.067,0.234-0.067c0.084,0,0.101,0.067,0.101,0.134
			c0,0.101-0.084,0.269-0.117,0.922c-0.017,0.15-0.051,0.771-0.084,0.938c-0.017,0.067-0.05,0.235-0.167,0.235
			c-0.101,0-0.118-0.067-0.118-0.185c0-0.101-0.017-0.352-0.101-0.52c-0.117-0.251-0.234-0.452-0.972-0.52
			c-0.251-0.033-2.01-0.066-2.312-0.066c-0.067,0-0.101,0.05-0.101,0.134v3.519c0,0.084,0.017,0.15,0.101,0.15
			c0.335,0,2.245,0,2.58-0.033c0.352-0.033,0.553-0.084,0.703-0.218c0.118-0.101,0.168-0.185,0.235-0.185
			c0.066,0,0.117,0.067,0.117,0.15c0,0.084-0.034,0.318-0.117,1.039c-0.034,0.285-0.067,0.854-0.067,0.955
			c0,0.117-0.017,0.318-0.15,0.318c-0.101,0-0.135-0.05-0.135-0.117c-0.017-0.15-0.017-0.335-0.05-0.52
			c-0.084-0.285-0.269-0.503-0.821-0.553c-0.268-0.033-1.943-0.067-2.312-0.067c-0.067,0-0.084,0.067-0.084,0.151v1.139
			c0,0.486-0.017,1.692,0,2.111c0.033,0.972,0.485,1.189,1.994,1.189c0.385,0,1.005-0.017,1.39-0.185
			c0.369-0.167,0.537-0.469,0.637-1.055c0.034-0.151,0.067-0.218,0.168-0.218c0.117,0,0.134,0.184,0.134,0.335
			c0,0.318-0.117,1.29-0.201,1.574c-0.101,0.369-0.234,0.369-0.787,0.369c-1.105,0-1.994-0.017-2.714-0.051
			c-0.721-0.017-1.273-0.033-1.709-0.033c-0.168,0-0.486,0.017-0.838,0.017c-0.352,0.017-0.721,0.033-1.022,0.033
			c-0.184,0-0.284-0.05-0.284-0.15c0-0.067,0.05-0.15,0.234-0.15c0.218,0,0.386-0.018,0.52-0.051
			c0.302-0.066,0.385-0.335,0.436-0.754c0.066-0.603,0.066-1.726,0.066-3.032V127.17z"/>
		<path d="M218.315,131.878c0.033,1.106,0.218,1.441,0.503,1.542c0.251,0.083,0.536,0.101,0.771,0.101
			c0.168,0,0.251,0.066,0.251,0.15c0,0.117-0.134,0.15-0.335,0.15c-0.955,0-1.642-0.05-1.91-0.05c-0.134,0-0.837,0.05-1.591,0.05
			c-0.201,0-0.336-0.017-0.336-0.15c0-0.084,0.101-0.15,0.235-0.15c0.2,0,0.469-0.018,0.67-0.067
			c0.385-0.101,0.436-0.485,0.452-1.726l0.134-8.444c0-0.284,0.101-0.485,0.252-0.485c0.184,0,0.385,0.218,0.637,0.469
			c0.184,0.185,2.396,2.446,4.54,4.54c1.005,0.989,2.966,2.999,3.184,3.2h0.066l-0.15-6.333c-0.017-0.871-0.151-1.122-0.503-1.257
			c-0.218-0.083-0.569-0.083-0.771-0.083c-0.185,0-0.234-0.067-0.234-0.151c0-0.117,0.15-0.134,0.368-0.134
			c0.771,0,1.559,0.033,1.877,0.033c0.167,0,0.72-0.033,1.44-0.033c0.201,0,0.335,0.017,0.335,0.134
			c0,0.084-0.084,0.151-0.251,0.151c-0.15,0-0.269,0-0.452,0.05c-0.402,0.117-0.52,0.369-0.536,1.173l-0.168,8.98
			c0,0.318-0.117,0.452-0.234,0.452c-0.251,0-0.452-0.15-0.604-0.302c-0.921-0.854-2.764-2.613-4.306-4.104
			c-1.608-1.541-3.166-3.268-3.451-3.519h-0.05L218.315,131.878z"/>
		<path d="M233.45,123.92l-2.195,0.051c-0.854,0.017-1.206,0.117-1.424,0.436c-0.15,0.201-0.218,0.385-0.251,0.485
			c-0.034,0.117-0.067,0.185-0.168,0.185s-0.134-0.084-0.134-0.234c0-0.234,0.285-1.608,0.318-1.726
			c0.033-0.185,0.084-0.269,0.167-0.269c0.118,0,0.269,0.117,0.637,0.168c0.436,0.05,0.989,0.066,1.475,0.066h5.981
			c0.469,0,0.787-0.033,1.005-0.066c0.234-0.034,0.353-0.067,0.402-0.067c0.101,0,0.117,0.084,0.117,0.302
			c0,0.302-0.033,1.357-0.033,1.726c-0.017,0.15-0.051,0.234-0.134,0.234c-0.118,0-0.151-0.066-0.168-0.285l-0.017-0.15
			c-0.034-0.368-0.419-0.804-1.742-0.821l-1.86-0.033v5.764c0,1.307,0.017,2.43,0.084,3.049c0.05,0.402,0.134,0.671,0.569,0.737
			c0.201,0.033,0.536,0.051,0.754,0.051c0.168,0,0.235,0.083,0.235,0.15c0,0.101-0.118,0.15-0.285,0.15
			c-0.972,0-1.96-0.05-2.379-0.05c-0.335,0-1.341,0.05-1.927,0.05c-0.185,0-0.285-0.05-0.285-0.15c0-0.067,0.051-0.15,0.234-0.15
			c0.218,0,0.402-0.018,0.52-0.051c0.302-0.066,0.386-0.335,0.436-0.754c0.067-0.603,0.067-1.726,0.067-3.032V123.92z"/>
	</g>
	<g>
		<path d="M117.634,106.035c-1.614-0.706-1.916-1.21-1.916-3.429c0-5.548,0.403-11.599,0.504-13.213
			c0.101-1.513,0.404-2.622,1.21-2.622c0.908,0,1.009,0.907,1.009,1.715c0,1.311,0.403,3.429,0.908,5.144
			c2.219,7.464,8.169,10.187,14.423,10.187c9.078,0,13.516-6.152,13.516-11.498c0-4.942-1.514-9.581-9.885-16.138l-4.64-3.631
			c-11.095-8.673-14.928-15.734-14.928-23.903c0-11.095,9.279-19.062,23.299-19.062c6.557,0,10.793,1.008,13.415,1.714
			c0.908,0.202,1.412,0.504,1.412,1.21c0,1.311-0.403,4.236-0.403,12.103c0,2.219-0.303,3.026-1.109,3.026
			c-0.706,0-1.009-0.605-1.009-1.815c0-0.908-0.504-4.034-2.622-6.657c-1.514-1.917-4.438-4.942-10.995-4.942
			c-7.464,0-12.002,4.337-12.002,10.389c0,4.64,2.32,8.17,10.691,14.524l2.824,2.118c12.205,9.178,16.542,16.138,16.542,25.719
			c0,5.851-2.219,12.81-9.48,17.55c-5.043,3.228-10.692,4.136-16.038,4.136C126.51,108.658,121.971,107.952,117.634,106.035z"/>
		<path d="M194.189,64.683h0.505c3.429-3.731,18.154-18.76,21.08-22.189c2.824-3.329,5.043-5.85,5.043-7.565
			c0-1.109-0.403-1.815-1.412-2.017c-0.908-0.202-1.312-0.403-1.312-1.008c0-0.706,0.505-0.908,1.614-0.908
			c2.117,0,7.665,0.303,10.389,0.303c3.126,0,8.674-0.303,11.8-0.303c1.009,0,1.715,0.202,1.715,0.908
			c0,0.706-0.504,0.908-1.513,0.908c-1.412,0-3.934,0.403-5.85,1.109c-3.127,1.21-6.557,3.328-10.894,7.564
			c-3.126,3.026-18.356,18.155-21.785,21.786c3.631,4.741,23.399,26.022,27.333,29.753c4.438,4.236,8.977,8.775,14.423,10.894
			c3.025,1.21,5.043,1.513,6.253,1.513c0.706,0,1.312,0.201,1.312,0.807c0,0.706-0.504,1.009-2.421,1.009h-8.774
			c-3.026,0-4.842,0-6.96-0.202c-5.446-0.504-8.169-2.723-12.506-6.556c-4.438-3.934-24.308-27.232-26.426-30.157l-1.109-1.512
			h-0.505v9.177c0,9.279,0,17.247,0.303,21.584c0.202,2.824,1.109,5.044,3.631,5.447c1.412,0.201,3.632,0.403,4.942,0.403
			c0.807,0,1.312,0.303,1.312,0.807c0,0.706-0.807,1.009-1.917,1.009c-5.647,0-12.002-0.303-14.523-0.303
			c-2.319,0-8.674,0.303-12.708,0.303c-1.312,0-2.018-0.303-2.018-1.009c0-0.504,0.403-0.807,1.613-0.807
			c1.514,0,2.724-0.202,3.632-0.403c2.017-0.403,2.521-2.623,2.925-5.548c0.504-4.236,0.504-12.204,0.504-21.483v-17.75
			c0-15.331,0-18.155-0.201-21.383c-0.202-3.429-1.009-5.043-4.338-5.749c-0.807-0.202-2.521-0.302-3.933-0.302
			c-1.11,0-1.715-0.202-1.715-0.908c0-0.706,0.706-0.908,2.219-0.908c5.346,0,11.7,0.303,14.12,0.303
			c2.421,0,8.775-0.303,12.204-0.303c1.412,0,2.118,0.202,2.118,0.908c0,0.706-0.604,0.908-1.412,0.908
			c-1.009,0-1.613,0.101-2.824,0.302c-2.723,0.504-3.529,2.219-3.731,5.749c-0.202,3.228-0.202,6.052-0.202,21.383V64.683z"/>
		<path d="M263.385,60.246c0-15.331,0-18.155-0.201-21.383c-0.202-3.429-1.009-5.043-4.338-5.749
			c-0.807-0.202-2.521-0.302-3.933-0.302c-1.11,0-1.715-0.202-1.715-0.908c0-0.706,0.706-0.908,2.219-0.908
			c5.346,0,11.7,0.303,14.322,0.303c2.421,0,8.774-0.303,12.708-0.303c1.412,0,2.118,0.202,2.118,0.908
			c0,0.706-0.605,0.908-1.815,0.908c-1.109,0-1.715,0.101-2.925,0.302c-2.724,0.504-3.53,2.219-3.731,5.749
			c-0.202,3.228-0.202,6.052-0.202,21.383v18.659c0,4.337,0.303,9.178,0.303,14.221c0,5.749-0.403,12.204-2.421,17.853
			c-2.118,6.152-7.464,13.112-17.146,19.062c-1.311,0.808-2.925,1.614-5.043,2.623c-0.706,0.403-1.513,0.604-2.017,0.604
			c-0.404,0-0.808-0.302-0.808-0.807c0-0.504,0.505-0.907,2.22-1.815c1.311-0.706,2.823-1.815,4.841-3.833
			c7.665-7.766,7.564-17.852,7.564-37.62V60.246z"/>
	</g>
	<g>
		<rect x="21.164" y="28.918" fill="#005596" width="80.535" height="80.534"/>
		<rect y="19.882" fill="#A3B5D6" width="59.971" height="59.973"/>
		<rect x="38.817" fill="#4777AE" width="40.096" height="40.096"/>
	</g>
</g>
</svg>
